<?xml version="1.0" encoding="UTF-8" standalone="no" ?>
<!DOCTYPE svg PUBLIC "-//W3C//DTD SVG 1.1//EN" "http://www.w3.org/Graphics/SVG/1.1/DTD/svg11.dtd">
<svg xmlns="http://www.w3.org/2000/svg" xmlns:xlink="http://www.w3.org/1999/xlink" version="1.1" width="1080" height="1080" viewBox="-40.67 78.76 1080 1080" xml:space="preserve">
<desc>Created with Fabric.js 5.2.4</desc>
<defs>
</defs>
<g transform="matrix(1 0 0 1 540 540)" id="9501cf44-4a71-4569-97d4-3b22a42e6c89"  >
<rect style="stroke: none; stroke-width: 1; stroke-dasharray: none; stroke-linecap: butt; stroke-dashoffset: 0; stroke-linejoin: miter; stroke-miterlimit: 4; fill: rgb(255,255,255); fill-rule: nonzero; opacity: 1; visibility: hidden;" vector-effect="non-scaling-stroke"  x="-540" y="-540" rx="0" ry="0" width="1080" height="1080" />
</g>
<g transform="matrix(1 0 0 1 540 540)" id="4c5ed02a-cbae-45a4-bfcb-14d46db54259"  >
</g>
<g transform="matrix(4.13 0 0 3.44 273.42 774.59)" id="d98618ae-5002-451b-ad77-a668c9d977a8"  >
<rect style="stroke: rgb(0,0,0); stroke-width: 0; stroke-dasharray: none; stroke-linecap: butt; stroke-dashoffset: 0; stroke-linejoin: miter; stroke-miterlimit: 4; fill: rgb(168,114,60); fill-rule: nonzero; opacity: 1;" vector-effect="non-scaling-stroke"  x="-33.085" y="-33.085" rx="0" ry="0" width="66.17" height="66.17" />
</g>
<g transform="matrix(4.56 0 0 2.46 274.55 596.49)" id="615c16be-7a04-4d3b-b848-11c3cec35ce0"  >
<polygon style="stroke: rgb(0,0,0); stroke-width: 0; stroke-dasharray: none; stroke-linecap: butt; stroke-dashoffset: 0; stroke-linejoin: miter; stroke-miterlimit: 4; fill: rgb(112,92,72); fill-rule: nonzero; opacity: 1;" vector-effect="non-scaling-stroke"  points="-37.43,32.41 0,-32.41 37.43,32.41 " />
</g>
<g transform="matrix(0.23 0 0 1.08 477.38 850.24)" id="4a93723f-2dfa-4321-97b3-9d0afb2093d8"  >
<rect style="stroke: rgb(0,0,0); stroke-width: 0; stroke-dasharray: none; stroke-linecap: butt; stroke-dashoffset: 0; stroke-linejoin: miter; stroke-miterlimit: 4; fill: rgb(120,93,39); fill-rule: nonzero; opacity: 1;" vector-effect="non-scaling-stroke"  x="-33.085" y="-33.085" rx="0" ry="0" width="66.17" height="66.17" />
</g>
<g transform="matrix(0 0.23 -0.93 0 440.91 833.88)" id="4a93723f-2dfa-4321-97b3-9d0afb2093d8"  >
<rect style="stroke: rgb(0,0,0); stroke-width: 0; stroke-dasharray: none; stroke-linecap: butt; stroke-dashoffset: 0; stroke-linejoin: miter; stroke-miterlimit: 4; fill: rgb(120,93,39); fill-rule: nonzero; opacity: 1;" vector-effect="non-scaling-stroke"  x="-33.085" y="-33.085" rx="0" ry="0" width="66.17" height="66.17" />
</g>
<g transform="matrix(0 0.23 -0.93 0 440.77 862.13)" id="4a93723f-2dfa-4321-97b3-9d0afb2093d8"  >
<rect style="stroke: rgb(0,0,0); stroke-width: 0; stroke-dasharray: none; stroke-linecap: butt; stroke-dashoffset: 0; stroke-linejoin: miter; stroke-miterlimit: 4; fill: rgb(120,93,39); fill-rule: nonzero; opacity: 1;" vector-effect="non-scaling-stroke"  x="-33.085" y="-33.085" rx="0" ry="0" width="66.17" height="66.17" />
</g>
<g transform="matrix(0.23 0 0 1.08 550.15 850.21)" id="4a93723f-2dfa-4321-97b3-9d0afb2093d8"  >
<rect style="stroke: rgb(0,0,0); stroke-width: 0; stroke-dasharray: none; stroke-linecap: butt; stroke-dashoffset: 0; stroke-linejoin: miter; stroke-miterlimit: 4; fill: rgb(120,93,39); fill-rule: nonzero; opacity: 1;" vector-effect="non-scaling-stroke"  x="-33.085" y="-33.085" rx="0" ry="0" width="66.17" height="66.17" />
</g>
<g transform="matrix(0 0.23 -0.93 0 513.68 833.85)" id="4a93723f-2dfa-4321-97b3-9d0afb2093d8"  >
<rect style="stroke: rgb(0,0,0); stroke-width: 0; stroke-dasharray: none; stroke-linecap: butt; stroke-dashoffset: 0; stroke-linejoin: miter; stroke-miterlimit: 4; fill: rgb(120,93,39); fill-rule: nonzero; opacity: 1;" vector-effect="non-scaling-stroke"  x="-33.085" y="-33.085" rx="0" ry="0" width="66.17" height="66.17" />
</g>
<g transform="matrix(0 0.23 -0.93 0 513.55 862.11)" id="4a93723f-2dfa-4321-97b3-9d0afb2093d8"  >
<rect style="stroke: rgb(0,0,0); stroke-width: 0; stroke-dasharray: none; stroke-linecap: butt; stroke-dashoffset: 0; stroke-linejoin: miter; stroke-miterlimit: 4; fill: rgb(120,93,39); fill-rule: nonzero; opacity: 1;" vector-effect="non-scaling-stroke"  x="-33.085" y="-33.085" rx="0" ry="0" width="66.17" height="66.17" />
</g>
<g transform="matrix(0.23 0 0 1.08 622.24 850.2)" id="4a93723f-2dfa-4321-97b3-9d0afb2093d8"  >
<rect style="stroke: rgb(0,0,0); stroke-width: 0; stroke-dasharray: none; stroke-linecap: butt; stroke-dashoffset: 0; stroke-linejoin: miter; stroke-miterlimit: 4; fill: rgb(120,93,39); fill-rule: nonzero; opacity: 1;" vector-effect="non-scaling-stroke"  x="-33.085" y="-33.085" rx="0" ry="0" width="66.17" height="66.17" />
</g>
<g transform="matrix(0 0.23 -0.93 0 585.77 833.84)" id="4a93723f-2dfa-4321-97b3-9d0afb2093d8"  >
<rect style="stroke: rgb(0,0,0); stroke-width: 0; stroke-dasharray: none; stroke-linecap: butt; stroke-dashoffset: 0; stroke-linejoin: miter; stroke-miterlimit: 4; fill: rgb(120,93,39); fill-rule: nonzero; opacity: 1;" vector-effect="non-scaling-stroke"  x="-33.085" y="-33.085" rx="0" ry="0" width="66.17" height="66.17" />
</g>
<g transform="matrix(0 0.23 -0.93 0 585.63 862.09)" id="4a93723f-2dfa-4321-97b3-9d0afb2093d8"  >
<rect style="stroke: rgb(0,0,0); stroke-width: 0; stroke-dasharray: none; stroke-linecap: butt; stroke-dashoffset: 0; stroke-linejoin: miter; stroke-miterlimit: 4; fill: rgb(120,93,39); fill-rule: nonzero; opacity: 1;" vector-effect="non-scaling-stroke"  x="-33.085" y="-33.085" rx="0" ry="0" width="66.17" height="66.17" />
</g>
<g transform="matrix(0.23 0 0 1.08 695.01 850.17)" id="4a93723f-2dfa-4321-97b3-9d0afb2093d8"  >
<rect style="stroke: rgb(0,0,0); stroke-width: 0; stroke-dasharray: none; stroke-linecap: butt; stroke-dashoffset: 0; stroke-linejoin: miter; stroke-miterlimit: 4; fill: rgb(120,93,39); fill-rule: nonzero; opacity: 1;" vector-effect="non-scaling-stroke"  x="-33.085" y="-33.085" rx="0" ry="0" width="66.17" height="66.17" />
</g>
<g transform="matrix(0 0.23 -0.93 0 658.54 833.81)" id="4a93723f-2dfa-4321-97b3-9d0afb2093d8"  >
<rect style="stroke: rgb(0,0,0); stroke-width: 0; stroke-dasharray: none; stroke-linecap: butt; stroke-dashoffset: 0; stroke-linejoin: miter; stroke-miterlimit: 4; fill: rgb(120,93,39); fill-rule: nonzero; opacity: 1;" vector-effect="non-scaling-stroke"  x="-33.085" y="-33.085" rx="0" ry="0" width="66.17" height="66.17" />
</g>
<g transform="matrix(0 0.23 -0.93 0 658.41 862.07)" id="4a93723f-2dfa-4321-97b3-9d0afb2093d8"  >
<rect style="stroke: rgb(0,0,0); stroke-width: 0; stroke-dasharray: none; stroke-linecap: butt; stroke-dashoffset: 0; stroke-linejoin: miter; stroke-miterlimit: 4; fill: rgb(120,93,39); fill-rule: nonzero; opacity: 1;" vector-effect="non-scaling-stroke"  x="-33.085" y="-33.085" rx="0" ry="0" width="66.17" height="66.17" />
</g>
<g transform="matrix(0.23 0 0 1.08 761.93 850.07)" id="4a93723f-2dfa-4321-97b3-9d0afb2093d8"  >
<rect style="stroke: rgb(0,0,0); stroke-width: 0; stroke-dasharray: none; stroke-linecap: butt; stroke-dashoffset: 0; stroke-linejoin: miter; stroke-miterlimit: 4; fill: rgb(120,93,39); fill-rule: nonzero; opacity: 1;" vector-effect="non-scaling-stroke"  x="-33.085" y="-33.085" rx="0" ry="0" width="66.17" height="66.17" />
</g>
<g transform="matrix(0 0.23 -0.93 0 725.46 833.71)" id="4a93723f-2dfa-4321-97b3-9d0afb2093d8"  >
<rect style="stroke: rgb(0,0,0); stroke-width: 0; stroke-dasharray: none; stroke-linecap: butt; stroke-dashoffset: 0; stroke-linejoin: miter; stroke-miterlimit: 4; fill: rgb(120,93,39); fill-rule: nonzero; opacity: 1;" vector-effect="non-scaling-stroke"  x="-33.085" y="-33.085" rx="0" ry="0" width="66.17" height="66.17" />
</g>
<g transform="matrix(0 0.23 -0.93 0 725.33 861.97)" id="4a93723f-2dfa-4321-97b3-9d0afb2093d8"  >
<rect style="stroke: rgb(0,0,0); stroke-width: 0; stroke-dasharray: none; stroke-linecap: butt; stroke-dashoffset: 0; stroke-linejoin: miter; stroke-miterlimit: 4; fill: rgb(120,93,39); fill-rule: nonzero; opacity: 1;" vector-effect="non-scaling-stroke"  x="-33.085" y="-33.085" rx="0" ry="0" width="66.17" height="66.17" />
</g>
<g transform="matrix(0.23 0 0 4.52 834.02 736.11)" id="4a93723f-2dfa-4321-97b3-9d0afb2093d8"  >
<rect style="stroke: rgb(0,0,0); stroke-width: 0; stroke-dasharray: none; stroke-linecap: butt; stroke-dashoffset: 0; stroke-linejoin: miter; stroke-miterlimit: 4; fill: rgb(120,93,39); fill-rule: nonzero; opacity: 1;" vector-effect="non-scaling-stroke"  x="-33.085" y="-33.085" rx="0" ry="0" width="66.17" height="66.17" />
</g>
<g transform="matrix(0 0.23 -0.93 0 797.55 833.7)" id="4a93723f-2dfa-4321-97b3-9d0afb2093d8"  >
<rect style="stroke: rgb(0,0,0); stroke-width: 0; stroke-dasharray: none; stroke-linecap: butt; stroke-dashoffset: 0; stroke-linejoin: miter; stroke-miterlimit: 4; fill: rgb(120,93,39); fill-rule: nonzero; opacity: 1;" vector-effect="non-scaling-stroke"  x="-33.085" y="-33.085" rx="0" ry="0" width="66.17" height="66.17" />
</g>
<g transform="matrix(0 0.23 -0.93 0 797.41 861.95)" id="4a93723f-2dfa-4321-97b3-9d0afb2093d8"  >
<rect style="stroke: rgb(0,0,0); stroke-width: 0; stroke-dasharray: none; stroke-linecap: butt; stroke-dashoffset: 0; stroke-linejoin: miter; stroke-miterlimit: 4; fill: rgb(120,93,39); fill-rule: nonzero; opacity: 1;" vector-effect="non-scaling-stroke"  x="-33.085" y="-33.085" rx="0" ry="0" width="66.17" height="66.17" />
</g>
<g transform="matrix(0.23 0 0 1.08 478.24 622.94)" id="4a93723f-2dfa-4321-97b3-9d0afb2093d8"  >
<rect style="stroke: rgb(0,0,0); stroke-width: 0; stroke-dasharray: none; stroke-linecap: butt; stroke-dashoffset: 0; stroke-linejoin: miter; stroke-miterlimit: 4; fill: rgb(120,93,39); fill-rule: nonzero; opacity: 1;" vector-effect="non-scaling-stroke"  x="-33.085" y="-33.085" rx="0" ry="0" width="66.17" height="66.17" />
</g>
<g transform="matrix(0 0.23 -0.93 0 441.77 606.58)" id="4a93723f-2dfa-4321-97b3-9d0afb2093d8"  >
<rect style="stroke: rgb(0,0,0); stroke-width: 0; stroke-dasharray: none; stroke-linecap: butt; stroke-dashoffset: 0; stroke-linejoin: miter; stroke-miterlimit: 4; fill: rgb(120,93,39); fill-rule: nonzero; opacity: 1;" vector-effect="non-scaling-stroke"  x="-33.085" y="-33.085" rx="0" ry="0" width="66.17" height="66.17" />
</g>
<g transform="matrix(0 0.23 -0.93 0 441.64 634.83)" id="4a93723f-2dfa-4321-97b3-9d0afb2093d8"  >
<rect style="stroke: rgb(0,0,0); stroke-width: 0; stroke-dasharray: none; stroke-linecap: butt; stroke-dashoffset: 0; stroke-linejoin: miter; stroke-miterlimit: 4; fill: rgb(120,93,39); fill-rule: nonzero; opacity: 1;" vector-effect="non-scaling-stroke"  x="-33.085" y="-33.085" rx="0" ry="0" width="66.17" height="66.17" />
</g>
<g transform="matrix(0.23 0 0 1.08 551.01 622.91)" id="4a93723f-2dfa-4321-97b3-9d0afb2093d8"  >
<rect style="stroke: rgb(0,0,0); stroke-width: 0; stroke-dasharray: none; stroke-linecap: butt; stroke-dashoffset: 0; stroke-linejoin: miter; stroke-miterlimit: 4; fill: rgb(120,93,39); fill-rule: nonzero; opacity: 1;" vector-effect="non-scaling-stroke"  x="-33.085" y="-33.085" rx="0" ry="0" width="66.17" height="66.17" />
</g>
<g transform="matrix(0 0.23 -0.93 0 514.54 606.55)" id="4a93723f-2dfa-4321-97b3-9d0afb2093d8"  >
<rect style="stroke: rgb(0,0,0); stroke-width: 0; stroke-dasharray: none; stroke-linecap: butt; stroke-dashoffset: 0; stroke-linejoin: miter; stroke-miterlimit: 4; fill: rgb(120,93,39); fill-rule: nonzero; opacity: 1;" vector-effect="non-scaling-stroke"  x="-33.085" y="-33.085" rx="0" ry="0" width="66.17" height="66.17" />
</g>
<g transform="matrix(0 0.23 -0.93 0 514.41 634.81)" id="4a93723f-2dfa-4321-97b3-9d0afb2093d8"  >
<rect style="stroke: rgb(0,0,0); stroke-width: 0; stroke-dasharray: none; stroke-linecap: butt; stroke-dashoffset: 0; stroke-linejoin: miter; stroke-miterlimit: 4; fill: rgb(120,93,39); fill-rule: nonzero; opacity: 1;" vector-effect="non-scaling-stroke"  x="-33.085" y="-33.085" rx="0" ry="0" width="66.17" height="66.17" />
</g>
<g transform="matrix(0.23 0 0 1.08 623.1 622.9)" id="4a93723f-2dfa-4321-97b3-9d0afb2093d8"  >
<rect style="stroke: rgb(0,0,0); stroke-width: 0; stroke-dasharray: none; stroke-linecap: butt; stroke-dashoffset: 0; stroke-linejoin: miter; stroke-miterlimit: 4; fill: rgb(120,93,39); fill-rule: nonzero; opacity: 1;" vector-effect="non-scaling-stroke"  x="-33.085" y="-33.085" rx="0" ry="0" width="66.17" height="66.17" />
</g>
<g transform="matrix(0 0.23 -0.93 0 586.63 606.54)" id="4a93723f-2dfa-4321-97b3-9d0afb2093d8"  >
<rect style="stroke: rgb(0,0,0); stroke-width: 0; stroke-dasharray: none; stroke-linecap: butt; stroke-dashoffset: 0; stroke-linejoin: miter; stroke-miterlimit: 4; fill: rgb(120,93,39); fill-rule: nonzero; opacity: 1;" vector-effect="non-scaling-stroke"  x="-33.085" y="-33.085" rx="0" ry="0" width="66.17" height="66.17" />
</g>
<g transform="matrix(0 0.23 -0.93 0 586.49 634.79)" id="4a93723f-2dfa-4321-97b3-9d0afb2093d8"  >
<rect style="stroke: rgb(0,0,0); stroke-width: 0; stroke-dasharray: none; stroke-linecap: butt; stroke-dashoffset: 0; stroke-linejoin: miter; stroke-miterlimit: 4; fill: rgb(120,93,39); fill-rule: nonzero; opacity: 1;" vector-effect="non-scaling-stroke"  x="-33.085" y="-33.085" rx="0" ry="0" width="66.17" height="66.17" />
</g>
<g transform="matrix(0.23 0 0 1.08 695.87 622.87)" id="4a93723f-2dfa-4321-97b3-9d0afb2093d8"  >
<rect style="stroke: rgb(0,0,0); stroke-width: 0; stroke-dasharray: none; stroke-linecap: butt; stroke-dashoffset: 0; stroke-linejoin: miter; stroke-miterlimit: 4; fill: rgb(120,93,39); fill-rule: nonzero; opacity: 1;" vector-effect="non-scaling-stroke"  x="-33.085" y="-33.085" rx="0" ry="0" width="66.17" height="66.17" />
</g>
<g transform="matrix(0 0.23 -0.93 0 659.4 606.51)" id="4a93723f-2dfa-4321-97b3-9d0afb2093d8"  >
<rect style="stroke: rgb(0,0,0); stroke-width: 0; stroke-dasharray: none; stroke-linecap: butt; stroke-dashoffset: 0; stroke-linejoin: miter; stroke-miterlimit: 4; fill: rgb(120,93,39); fill-rule: nonzero; opacity: 1;" vector-effect="non-scaling-stroke"  x="-33.085" y="-33.085" rx="0" ry="0" width="66.17" height="66.17" />
</g>
<g transform="matrix(0 0.23 -0.93 0 659.27 634.77)" id="4a93723f-2dfa-4321-97b3-9d0afb2093d8"  >
<rect style="stroke: rgb(0,0,0); stroke-width: 0; stroke-dasharray: none; stroke-linecap: butt; stroke-dashoffset: 0; stroke-linejoin: miter; stroke-miterlimit: 4; fill: rgb(120,93,39); fill-rule: nonzero; opacity: 1;" vector-effect="non-scaling-stroke"  x="-33.085" y="-33.085" rx="0" ry="0" width="66.17" height="66.17" />
</g>
<g transform="matrix(0.23 0 0 1.08 762.8 622.77)" id="4a93723f-2dfa-4321-97b3-9d0afb2093d8"  >
<rect style="stroke: rgb(0,0,0); stroke-width: 0; stroke-dasharray: none; stroke-linecap: butt; stroke-dashoffset: 0; stroke-linejoin: miter; stroke-miterlimit: 4; fill: rgb(120,93,39); fill-rule: nonzero; opacity: 1;" vector-effect="non-scaling-stroke"  x="-33.085" y="-33.085" rx="0" ry="0" width="66.17" height="66.17" />
</g>
<g transform="matrix(0 0.23 -0.93 0 726.33 606.41)" id="4a93723f-2dfa-4321-97b3-9d0afb2093d8"  >
<rect style="stroke: rgb(0,0,0); stroke-width: 0; stroke-dasharray: none; stroke-linecap: butt; stroke-dashoffset: 0; stroke-linejoin: miter; stroke-miterlimit: 4; fill: rgb(120,93,39); fill-rule: nonzero; opacity: 1;" vector-effect="non-scaling-stroke"  x="-33.085" y="-33.085" rx="0" ry="0" width="66.17" height="66.17" />
</g>
<g transform="matrix(0 0.23 -0.93 0 726.2 634.67)" id="4a93723f-2dfa-4321-97b3-9d0afb2093d8"  >
<rect style="stroke: rgb(0,0,0); stroke-width: 0; stroke-dasharray: none; stroke-linecap: butt; stroke-dashoffset: 0; stroke-linejoin: miter; stroke-miterlimit: 4; fill: rgb(120,93,39); fill-rule: nonzero; opacity: 1;" vector-effect="non-scaling-stroke"  x="-33.085" y="-33.085" rx="0" ry="0" width="66.17" height="66.17" />
</g>
<g transform="matrix(0 0.23 -0.93 0 798.42 606.4)" id="4a93723f-2dfa-4321-97b3-9d0afb2093d8"  >
<rect style="stroke: rgb(0,0,0); stroke-width: 0; stroke-dasharray: none; stroke-linecap: butt; stroke-dashoffset: 0; stroke-linejoin: miter; stroke-miterlimit: 4; fill: rgb(120,93,39); fill-rule: nonzero; opacity: 1;" vector-effect="non-scaling-stroke"  x="-33.085" y="-33.085" rx="0" ry="0" width="66.17" height="66.17" />
</g>
<g transform="matrix(0 0.23 -0.93 0 798.28 634.65)" id="4a93723f-2dfa-4321-97b3-9d0afb2093d8"  >
<rect style="stroke: rgb(0,0,0); stroke-width: 0; stroke-dasharray: none; stroke-linecap: butt; stroke-dashoffset: 0; stroke-linejoin: miter; stroke-miterlimit: 4; fill: rgb(120,93,39); fill-rule: nonzero; opacity: 1;" vector-effect="non-scaling-stroke"  x="-33.085" y="-33.085" rx="0" ry="0" width="66.17" height="66.17" />
</g>
<g transform="matrix(0.23 0 0 0.7 407.57 613.68)" id="4a93723f-2dfa-4321-97b3-9d0afb2093d8"  >
<rect style="stroke: rgb(0,0,0); stroke-width: 0; stroke-dasharray: none; stroke-linecap: butt; stroke-dashoffset: 0; stroke-linejoin: miter; stroke-miterlimit: 4; fill: rgb(120,93,39); fill-rule: nonzero; opacity: 1;" vector-effect="non-scaling-stroke"  x="-33.085" y="-33.085" rx="0" ry="0" width="66.17" height="66.17" />
</g>
<g transform="matrix(0.13 0.19 -0.19 0.13 412.74 637.53)" id="df6f6fdb-51ea-4d3d-a48d-baf4ca360410"  >
<polygon style="stroke: rgb(0,0,0); stroke-width: 0; stroke-dasharray: none; stroke-linecap: butt; stroke-dashoffset: 0; stroke-linejoin: miter; stroke-miterlimit: 4; fill: rgb(120,93,39); fill-rule: nonzero; opacity: 1;" vector-effect="non-scaling-stroke"  points="-37.43,32.41 0,-32.41 37.43,32.41 " />
</g>
<g transform="matrix(0 0 0 0 0 0)"  >
<g style=""   >
</g>
</g>
<g transform="matrix(1.47 0 0 0.76 506.95 686.7)" id="46456667-2f97-4092-9769-275301949222"  >
<circle style="stroke: rgb(0,0,0); stroke-width: 0; stroke-dasharray: none; stroke-linecap: butt; stroke-dashoffset: 0; stroke-linejoin: miter; stroke-miterlimit: 4; fill: rgb(214,163,174); fill-rule: nonzero; opacity: 1;" vector-effect="non-scaling-stroke"  cx="0" cy="0" r="35" />
</g>
<g transform="matrix(0.7 0 0 0.7 549.88 657.21)" id="06d1d215-6a54-4da5-9c2e-185e05fbce50"  >
<circle style="stroke: rgb(0,0,0); stroke-width: 0; stroke-dasharray: none; stroke-linecap: butt; stroke-dashoffset: 0; stroke-linejoin: miter; stroke-miterlimit: 4; fill: rgb(214,163,174); fill-rule: nonzero; opacity: 1;" vector-effect="non-scaling-stroke"  cx="0" cy="0" r="35" />
</g>
<g transform="matrix(0.19 0 0 0.29 530.61 639.04)" id="3f7c91fd-8294-413c-9b81-1f3a5b7a9bfd"  >
<circle style="stroke: rgb(0,0,0); stroke-width: 0; stroke-dasharray: none; stroke-linecap: butt; stroke-dashoffset: 0; stroke-linejoin: miter; stroke-miterlimit: 4; fill: rgb(214,163,174); fill-rule: nonzero; opacity: 1;" vector-effect="non-scaling-stroke"  cx="0" cy="0" r="35" />
</g>
<g transform="matrix(0.19 0 0 0.29 572.37 641.55)" id="3f7c91fd-8294-413c-9b81-1f3a5b7a9bfd"  >
<circle style="stroke: rgb(0,0,0); stroke-width: 0; stroke-dasharray: none; stroke-linecap: butt; stroke-dashoffset: 0; stroke-linejoin: miter; stroke-miterlimit: 4; fill: rgb(214,163,174); fill-rule: nonzero; opacity: 1;" vector-effect="non-scaling-stroke"  cx="0" cy="0" r="35" />
</g>
<g transform="matrix(0 0 0 0 0 0)"  >
<g style=""   >
</g>
</g>
<g transform="matrix(0 0 0 0 0 0)"  >
<g style=""   >
</g>
</g>
<g transform="matrix(0 0 0 0 0 0)"  >
<g style=""   >
</g>
</g>
<g transform="matrix(0.29 0 0 0.2 549.84 661.92)" id="a2cafbcc-6a47-405c-b8c3-f495dec0ab3d"  >
<circle style="stroke: rgb(0,0,0); stroke-width: 0; stroke-dasharray: none; stroke-linecap: butt; stroke-dashoffset: 0; stroke-linejoin: miter; stroke-miterlimit: 4; fill: rgb(202,127,143); fill-rule: nonzero; opacity: 1;" vector-effect="non-scaling-stroke"  cx="0" cy="0" r="35" />
</g>
<g transform="matrix(0 0 0 0 0 0)"  >
<g style=""   >
</g>
</g>
<g transform="matrix(0.06 0 0 0.06 554.13 661.51)" id="3b4de6da-a644-494f-b846-c0a853edec1c"  >
<circle style="stroke: rgb(0,0,0); stroke-width: 0; stroke-dasharray: none; stroke-linecap: butt; stroke-dashoffset: 0; stroke-linejoin: miter; stroke-miterlimit: 4; fill: rgb(0,0,0); fill-rule: nonzero; opacity: 1;" vector-effect="non-scaling-stroke"  cx="0" cy="0" r="35" />
</g>
<g transform="matrix(0.06 0 0 0.06 547.18 661.31)" id="3b4de6da-a644-494f-b846-c0a853edec1c"  >
<circle style="stroke: rgb(0,0,0); stroke-width: 0; stroke-dasharray: none; stroke-linecap: butt; stroke-dashoffset: 0; stroke-linejoin: miter; stroke-miterlimit: 4; fill: rgb(0,0,0); fill-rule: nonzero; opacity: 1;" vector-effect="non-scaling-stroke"  cx="0" cy="0" r="35" />
</g>
<g transform="matrix(0.13 0 0 0.13 544.06 646.15)" id="50a89e64-a152-4fc9-86a7-83c5d5a36e25"  >
<circle style="stroke: rgb(0,0,0); stroke-width: 0; stroke-dasharray: none; stroke-linecap: butt; stroke-dashoffset: 0; stroke-linejoin: miter; stroke-miterlimit: 4; fill: rgb(255,255,255); fill-rule: nonzero; opacity: 1;" vector-effect="non-scaling-stroke"  cx="0" cy="0" r="35" />
</g>
<g transform="matrix(0.13 0 0 0.13 559.18 646.41)" id="50a89e64-a152-4fc9-86a7-83c5d5a36e25"  >
<circle style="stroke: rgb(0,0,0); stroke-width: 0; stroke-dasharray: none; stroke-linecap: butt; stroke-dashoffset: 0; stroke-linejoin: miter; stroke-miterlimit: 4; fill: rgb(255,255,255); fill-rule: nonzero; opacity: 1;" vector-effect="non-scaling-stroke"  cx="0" cy="0" r="35" />
</g>
<g transform="matrix(0.06 0 0 0.06 546.08 647.16)" id="3b4de6da-a644-494f-b846-c0a853edec1c"  >
<circle style="stroke: rgb(0,0,0); stroke-width: 0; stroke-dasharray: none; stroke-linecap: butt; stroke-dashoffset: 0; stroke-linejoin: miter; stroke-miterlimit: 4; fill: rgb(0,0,0); fill-rule: nonzero; opacity: 1;" vector-effect="non-scaling-stroke"  cx="0" cy="0" r="35" />
</g>
<g transform="matrix(0.06 0 0 0.06 558.5 644.71)" id="3b4de6da-a644-494f-b846-c0a853edec1c"  >
<circle style="stroke: rgb(0,0,0); stroke-width: 0; stroke-dasharray: none; stroke-linecap: butt; stroke-dashoffset: 0; stroke-linejoin: miter; stroke-miterlimit: 4; fill: rgb(0,0,0); fill-rule: nonzero; opacity: 1;" vector-effect="non-scaling-stroke"  cx="0" cy="0" r="35" />
</g>
<g transform="matrix(0.15 0.17 0.17 -0.15 458.1 679.04)"  >
<path style="stroke: rgb(214,163,174); stroke-width: 4; stroke-dasharray: none; stroke-linecap: butt; stroke-dashoffset: 0; stroke-linejoin: miter; stroke-miterlimit: 4; fill: rgb(214,163,174); fill-rule: nonzero; opacity: 1;" vector-effect="non-scaling-stroke"  transform=" translate(-50, -50)" d="M 44.565 18.929 C 59.677 18.929 72.25 29.652 75.077 43.884 L 86.481 43.884 L 78.48899999999999 53.388 L 70.49699999999999 62.891999999999996 L 62.50099999999998 53.388 L 54.508999999999986 43.884 L 65.52399999999999 43.884 C 62.890999999999984 34.818 54.508999999999986 28.189 44.56599999999999 28.189 C 32.52999999999999 28.189 22.780999999999988 37.936 22.780999999999988 49.975 C 22.780999999999988 62.062 32.52999999999999 71.811 44.56599999999999 71.811 C 49.58699999999999 71.811 54.216999999999985 70.105 57.87399999999999 67.278 L 61.67599999999999 75.952 C 56.79999999999999 79.17 50.90299999999999 81.07 44.56599999999999 81.07 C 27.41199999999999 81.07 13.518999999999988 67.17999999999999 13.518999999999988 49.974999999999994 C 13.518 32.82 27.411 18.929 44.565 18.929 z" stroke-linecap="round" />
</g>
<g transform="matrix(0 0 0 0 0 0)"  >
<g style=""   >
</g>
</g>
<g transform="matrix(0 0 0 0 0 0)"  >
<g style=""   >
</g>
</g>
<g transform="matrix(0.15 0.17 0.17 -0.15 457.9 671.65)"  >
<path style="stroke: rgb(214,163,174); stroke-width: 4; stroke-dasharray: none; stroke-linecap: butt; stroke-dashoffset: 0; stroke-linejoin: miter; stroke-miterlimit: 4; fill: rgb(214,163,174); fill-rule: nonzero; opacity: 1;" vector-effect="non-scaling-stroke"  transform=" translate(-50, -50)" d="M 44.565 18.929 C 59.677 18.929 72.25 29.652 75.077 43.884 L 86.481 43.884 L 78.48899999999999 53.388 L 70.49699999999999 62.891999999999996 L 62.50099999999998 53.388 L 54.508999999999986 43.884 L 65.52399999999999 43.884 C 62.890999999999984 34.818 54.508999999999986 28.189 44.56599999999999 28.189 C 32.52999999999999 28.189 22.780999999999988 37.936 22.780999999999988 49.975 C 22.780999999999988 62.062 32.52999999999999 71.811 44.56599999999999 71.811 C 49.58699999999999 71.811 54.216999999999985 70.105 57.87399999999999 67.278 L 61.67599999999999 75.952 C 56.79999999999999 79.17 50.90299999999999 81.07 44.56599999999999 81.07 C 27.41199999999999 81.07 13.518999999999988 67.17999999999999 13.518999999999988 49.974999999999994 C 13.518 32.82 27.411 18.929 44.565 18.929 z" stroke-linecap="round" />
</g>
<g transform="matrix(-0.09 0.22 0.21 0.08 455.91 661.55)"  >
<path style="stroke: rgb(214,163,174); stroke-width: 4; stroke-dasharray: none; stroke-linecap: butt; stroke-dashoffset: 0; stroke-linejoin: miter; stroke-miterlimit: 4; fill: rgb(214,163,174); fill-rule: nonzero; opacity: 1;" vector-effect="non-scaling-stroke"  transform=" translate(-50, -50)" d="M 44.565 18.929 C 59.677 18.929 72.25 29.652 75.077 43.884 L 86.481 43.884 L 78.48899999999999 53.388 L 70.49699999999999 62.891999999999996 L 62.50099999999998 53.388 L 54.508999999999986 43.884 L 65.52399999999999 43.884 C 62.890999999999984 34.818 54.508999999999986 28.189 44.56599999999999 28.189 C 32.52999999999999 28.189 22.780999999999988 37.936 22.780999999999988 49.975 C 22.780999999999988 62.062 32.52999999999999 71.811 44.56599999999999 71.811 C 49.58699999999999 71.811 54.216999999999985 70.105 57.87399999999999 67.278 L 61.67599999999999 75.952 C 56.79999999999999 79.17 50.90299999999999 81.07 44.56599999999999 81.07 C 27.41199999999999 81.07 13.518999999999988 67.17999999999999 13.518999999999988 49.974999999999994 C 13.518 32.82 27.411 18.929 44.565 18.929 z" stroke-linecap="round" />
</g>
<g transform="matrix(0.16 0 0 0.36 541.67 709.77)" id="b70d404c-2058-4664-9f45-c9ce794600dd"  >
<rect style="stroke: rgb(0,0,0); stroke-width: 0; stroke-dasharray: none; stroke-linecap: butt; stroke-dashoffset: 0; stroke-linejoin: miter; stroke-miterlimit: 4; fill: rgb(214,163,174); fill-rule: nonzero; opacity: 1;" vector-effect="non-scaling-stroke"  x="-33.085" y="-33.085" rx="0" ry="0" width="66.17" height="66.17" />
</g>
<g transform="matrix(0 0 0 0 0 0)"  >
<g style=""   >
</g>
</g>
<g transform="matrix(0.16 0 0 0.36 525.72 710.92)" id="b70d404c-2058-4664-9f45-c9ce794600dd"  >
<rect style="stroke: rgb(0,0,0); stroke-width: 0; stroke-dasharray: none; stroke-linecap: butt; stroke-dashoffset: 0; stroke-linejoin: miter; stroke-miterlimit: 4; fill: rgb(214,163,174); fill-rule: nonzero; opacity: 1;" vector-effect="non-scaling-stroke"  x="-33.085" y="-33.085" rx="0" ry="0" width="66.17" height="66.17" />
</g>
<g transform="matrix(0.16 0 0 0.36 488.6 711.64)" id="b70d404c-2058-4664-9f45-c9ce794600dd"  >
<rect style="stroke: rgb(0,0,0); stroke-width: 0; stroke-dasharray: none; stroke-linecap: butt; stroke-dashoffset: 0; stroke-linejoin: miter; stroke-miterlimit: 4; fill: rgb(214,163,174); fill-rule: nonzero; opacity: 1;" vector-effect="non-scaling-stroke"  x="-33.085" y="-33.085" rx="0" ry="0" width="66.17" height="66.17" />
</g>
<g transform="matrix(0.16 0 0 0.36 467.69 710.54)" id="b70d404c-2058-4664-9f45-c9ce794600dd"  >
<rect style="stroke: rgb(0,0,0); stroke-width: 0; stroke-dasharray: none; stroke-linecap: butt; stroke-dashoffset: 0; stroke-linejoin: miter; stroke-miterlimit: 4; fill: rgb(214,163,174); fill-rule: nonzero; opacity: 1;" vector-effect="non-scaling-stroke"  x="-33.085" y="-33.085" rx="0" ry="0" width="66.17" height="66.17" />
</g>
<g transform="matrix(1.46 0 0 0.76 690.23 694.45)" id="46456667-2f97-4092-9769-275301949222"  >
<circle style="stroke: rgb(0,0,0); stroke-width: 0; stroke-dasharray: none; stroke-linecap: butt; stroke-dashoffset: 0; stroke-linejoin: miter; stroke-miterlimit: 4; fill: rgb(214,163,174); fill-rule: nonzero; opacity: 1;" vector-effect="non-scaling-stroke"  cx="0" cy="0" r="35" />
</g>
<g transform="matrix(0.7 0 0 0.7 733.09 665.02)" id="06d1d215-6a54-4da5-9c2e-185e05fbce50"  >
<circle style="stroke: rgb(0,0,0); stroke-width: 0; stroke-dasharray: none; stroke-linecap: butt; stroke-dashoffset: 0; stroke-linejoin: miter; stroke-miterlimit: 4; fill: rgb(214,163,174); fill-rule: nonzero; opacity: 1;" vector-effect="non-scaling-stroke"  cx="0" cy="0" r="35" />
</g>
<g transform="matrix(0.19 0 0 0.29 713.85 646.88)" id="3f7c91fd-8294-413c-9b81-1f3a5b7a9bfd"  >
<circle style="stroke: rgb(0,0,0); stroke-width: 0; stroke-dasharray: none; stroke-linecap: butt; stroke-dashoffset: 0; stroke-linejoin: miter; stroke-miterlimit: 4; fill: rgb(214,163,174); fill-rule: nonzero; opacity: 1;" vector-effect="non-scaling-stroke"  cx="0" cy="0" r="35" />
</g>
<g transform="matrix(0.19 0 0 0.29 755.53 649.39)" id="3f7c91fd-8294-413c-9b81-1f3a5b7a9bfd"  >
<circle style="stroke: rgb(0,0,0); stroke-width: 0; stroke-dasharray: none; stroke-linecap: butt; stroke-dashoffset: 0; stroke-linejoin: miter; stroke-miterlimit: 4; fill: rgb(214,163,174); fill-rule: nonzero; opacity: 1;" vector-effect="non-scaling-stroke"  cx="0" cy="0" r="35" />
</g>
<g transform="matrix(0.29 0 0 0.2 733.04 669.73)" id="a2cafbcc-6a47-405c-b8c3-f495dec0ab3d"  >
<circle style="stroke: rgb(0,0,0); stroke-width: 0; stroke-dasharray: none; stroke-linecap: butt; stroke-dashoffset: 0; stroke-linejoin: miter; stroke-miterlimit: 4; fill: rgb(202,127,143); fill-rule: nonzero; opacity: 1;" vector-effect="non-scaling-stroke"  cx="0" cy="0" r="35" />
</g>
<g transform="matrix(0.06 0 0 0.06 737.32 669.31)" id="3b4de6da-a644-494f-b846-c0a853edec1c"  >
<circle style="stroke: rgb(0,0,0); stroke-width: 0; stroke-dasharray: none; stroke-linecap: butt; stroke-dashoffset: 0; stroke-linejoin: miter; stroke-miterlimit: 4; fill: rgb(0,0,0); fill-rule: nonzero; opacity: 1;" vector-effect="non-scaling-stroke"  cx="0" cy="0" r="35" />
</g>
<g transform="matrix(0.06 0 0 0.06 730.38 669.12)" id="3b4de6da-a644-494f-b846-c0a853edec1c"  >
<circle style="stroke: rgb(0,0,0); stroke-width: 0; stroke-dasharray: none; stroke-linecap: butt; stroke-dashoffset: 0; stroke-linejoin: miter; stroke-miterlimit: 4; fill: rgb(0,0,0); fill-rule: nonzero; opacity: 1;" vector-effect="non-scaling-stroke"  cx="0" cy="0" r="35" />
</g>
<g transform="matrix(0.13 0 0 0.13 727.28 653.98)" id="50a89e64-a152-4fc9-86a7-83c5d5a36e25"  >
<circle style="stroke: rgb(0,0,0); stroke-width: 0; stroke-dasharray: none; stroke-linecap: butt; stroke-dashoffset: 0; stroke-linejoin: miter; stroke-miterlimit: 4; fill: rgb(255,255,255); fill-rule: nonzero; opacity: 1;" vector-effect="non-scaling-stroke"  cx="0" cy="0" r="35" />
</g>
<g transform="matrix(0.13 0 0 0.13 742.37 654.24)" id="50a89e64-a152-4fc9-86a7-83c5d5a36e25"  >
<circle style="stroke: rgb(0,0,0); stroke-width: 0; stroke-dasharray: none; stroke-linecap: butt; stroke-dashoffset: 0; stroke-linejoin: miter; stroke-miterlimit: 4; fill: rgb(255,255,255); fill-rule: nonzero; opacity: 1;" vector-effect="non-scaling-stroke"  cx="0" cy="0" r="35" />
</g>
<g transform="matrix(0.06 0 0 0.06 729.29 654.99)" id="3b4de6da-a644-494f-b846-c0a853edec1c"  >
<circle style="stroke: rgb(0,0,0); stroke-width: 0; stroke-dasharray: none; stroke-linecap: butt; stroke-dashoffset: 0; stroke-linejoin: miter; stroke-miterlimit: 4; fill: rgb(0,0,0); fill-rule: nonzero; opacity: 1;" vector-effect="non-scaling-stroke"  cx="0" cy="0" r="35" />
</g>
<g transform="matrix(0.06 0 0 0.06 741.69 652.55)" id="3b4de6da-a644-494f-b846-c0a853edec1c"  >
<circle style="stroke: rgb(0,0,0); stroke-width: 0; stroke-dasharray: none; stroke-linecap: butt; stroke-dashoffset: 0; stroke-linejoin: miter; stroke-miterlimit: 4; fill: rgb(0,0,0); fill-rule: nonzero; opacity: 1;" vector-effect="non-scaling-stroke"  cx="0" cy="0" r="35" />
</g>
<g transform="matrix(0.15 0.17 0.17 -0.15 641.47 686.81)"  >
<path style="stroke: rgb(214,163,174); stroke-width: 4; stroke-dasharray: none; stroke-linecap: butt; stroke-dashoffset: 0; stroke-linejoin: miter; stroke-miterlimit: 4; fill: rgb(214,163,174); fill-rule: nonzero; opacity: 1;" vector-effect="non-scaling-stroke"  transform=" translate(-50, -50)" d="M 44.565 18.929 C 59.677 18.929 72.25 29.652 75.077 43.884 L 86.481 43.884 L 78.48899999999999 53.388 L 70.49699999999999 62.891999999999996 L 62.50099999999998 53.388 L 54.508999999999986 43.884 L 65.52399999999999 43.884 C 62.890999999999984 34.818 54.508999999999986 28.189 44.56599999999999 28.189 C 32.52999999999999 28.189 22.780999999999988 37.936 22.780999999999988 49.975 C 22.780999999999988 62.062 32.52999999999999 71.811 44.56599999999999 71.811 C 49.58699999999999 71.811 54.216999999999985 70.105 57.87399999999999 67.278 L 61.67599999999999 75.952 C 56.79999999999999 79.17 50.90299999999999 81.07 44.56599999999999 81.07 C 27.41199999999999 81.07 13.518999999999988 67.17999999999999 13.518999999999988 49.974999999999994 C 13.518 32.82 27.411 18.929 44.565 18.929 z" stroke-linecap="round" />
</g>
<g transform="matrix(0.15 0.17 0.17 -0.15 641.27 679.43)"  >
<path style="stroke: rgb(214,163,174); stroke-width: 4; stroke-dasharray: none; stroke-linecap: butt; stroke-dashoffset: 0; stroke-linejoin: miter; stroke-miterlimit: 4; fill: rgb(214,163,174); fill-rule: nonzero; opacity: 1;" vector-effect="non-scaling-stroke"  transform=" translate(-50, -50)" d="M 44.565 18.929 C 59.677 18.929 72.25 29.652 75.077 43.884 L 86.481 43.884 L 78.48899999999999 53.388 L 70.49699999999999 62.891999999999996 L 62.50099999999998 53.388 L 54.508999999999986 43.884 L 65.52399999999999 43.884 C 62.890999999999984 34.818 54.508999999999986 28.189 44.56599999999999 28.189 C 32.52999999999999 28.189 22.780999999999988 37.936 22.780999999999988 49.975 C 22.780999999999988 62.062 32.52999999999999 71.811 44.56599999999999 71.811 C 49.58699999999999 71.811 54.216999999999985 70.105 57.87399999999999 67.278 L 61.67599999999999 75.952 C 56.79999999999999 79.17 50.90299999999999 81.07 44.56599999999999 81.07 C 27.41199999999999 81.07 13.518999999999988 67.17999999999999 13.518999999999988 49.974999999999994 C 13.518 32.82 27.411 18.929 44.565 18.929 z" stroke-linecap="round" />
</g>
<g transform="matrix(-0.09 0.21 0.21 0.08 639.28 669.35)"  >
<path style="stroke: rgb(214,163,174); stroke-width: 4; stroke-dasharray: none; stroke-linecap: butt; stroke-dashoffset: 0; stroke-linejoin: miter; stroke-miterlimit: 4; fill: rgb(214,163,174); fill-rule: nonzero; opacity: 1;" vector-effect="non-scaling-stroke"  transform=" translate(-50, -50)" d="M 44.565 18.929 C 59.677 18.929 72.25 29.652 75.077 43.884 L 86.481 43.884 L 78.48899999999999 53.388 L 70.49699999999999 62.891999999999996 L 62.50099999999998 53.388 L 54.508999999999986 43.884 L 65.52399999999999 43.884 C 62.890999999999984 34.818 54.508999999999986 28.189 44.56599999999999 28.189 C 32.52999999999999 28.189 22.780999999999988 37.936 22.780999999999988 49.975 C 22.780999999999988 62.062 32.52999999999999 71.811 44.56599999999999 71.811 C 49.58699999999999 71.811 54.216999999999985 70.105 57.87399999999999 67.278 L 61.67599999999999 75.952 C 56.79999999999999 79.17 50.90299999999999 81.07 44.56599999999999 81.07 C 27.41199999999999 81.07 13.518999999999988 67.17999999999999 13.518999999999988 49.974999999999994 C 13.518 32.82 27.411 18.929 44.565 18.929 z" stroke-linecap="round" />
</g>
<g transform="matrix(0.16 0 0 0.36 724.89 717.48)" id="b70d404c-2058-4664-9f45-c9ce794600dd"  >
<rect style="stroke: rgb(0,0,0); stroke-width: 0; stroke-dasharray: none; stroke-linecap: butt; stroke-dashoffset: 0; stroke-linejoin: miter; stroke-miterlimit: 4; fill: rgb(214,163,174); fill-rule: nonzero; opacity: 1;" vector-effect="non-scaling-stroke"  x="-33.085" y="-33.085" rx="0" ry="0" width="66.17" height="66.17" />
</g>
<g transform="matrix(0.16 0 0 0.36 708.96 718.63)" id="b70d404c-2058-4664-9f45-c9ce794600dd"  >
<rect style="stroke: rgb(0,0,0); stroke-width: 0; stroke-dasharray: none; stroke-linecap: butt; stroke-dashoffset: 0; stroke-linejoin: miter; stroke-miterlimit: 4; fill: rgb(214,163,174); fill-rule: nonzero; opacity: 1;" vector-effect="non-scaling-stroke"  x="-33.085" y="-33.085" rx="0" ry="0" width="66.17" height="66.17" />
</g>
<g transform="matrix(0.16 0 0 0.36 671.91 719.34)" id="b70d404c-2058-4664-9f45-c9ce794600dd"  >
<rect style="stroke: rgb(0,0,0); stroke-width: 0; stroke-dasharray: none; stroke-linecap: butt; stroke-dashoffset: 0; stroke-linejoin: miter; stroke-miterlimit: 4; fill: rgb(214,163,174); fill-rule: nonzero; opacity: 1;" vector-effect="non-scaling-stroke"  x="-33.085" y="-33.085" rx="0" ry="0" width="66.17" height="66.17" />
</g>
<g transform="matrix(0.16 0 0 0.36 651.04 718.25)" id="b70d404c-2058-4664-9f45-c9ce794600dd"  >
<rect style="stroke: rgb(0,0,0); stroke-width: 0; stroke-dasharray: none; stroke-linecap: butt; stroke-dashoffset: 0; stroke-linejoin: miter; stroke-miterlimit: 4; fill: rgb(214,163,174); fill-rule: nonzero; opacity: 1;" vector-effect="non-scaling-stroke"  x="-33.085" y="-33.085" rx="0" ry="0" width="66.17" height="66.17" />
</g>
<g transform="matrix(0.84 0 0 0.43 607.33 763.42)" id="46456667-2f97-4092-9769-275301949222"  >
<circle style="stroke: rgb(0,0,0); stroke-width: 0; stroke-dasharray: none; stroke-linecap: butt; stroke-dashoffset: 0; stroke-linejoin: miter; stroke-miterlimit: 4; fill: rgb(214,163,174); fill-rule: nonzero; opacity: 1;" vector-effect="non-scaling-stroke"  cx="0" cy="0" r="35" />
</g>
<g transform="matrix(0.4 0 0 0.4 631.95 746.51)" id="06d1d215-6a54-4da5-9c2e-185e05fbce50"  >
<circle style="stroke: rgb(0,0,0); stroke-width: 0; stroke-dasharray: none; stroke-linecap: butt; stroke-dashoffset: 0; stroke-linejoin: miter; stroke-miterlimit: 4; fill: rgb(214,163,174); fill-rule: nonzero; opacity: 1;" vector-effect="non-scaling-stroke"  cx="0" cy="0" r="35" />
</g>
<g transform="matrix(0.11 0 0 0.16 620.9 736.1)" id="3f7c91fd-8294-413c-9b81-1f3a5b7a9bfd"  >
<circle style="stroke: rgb(0,0,0); stroke-width: 0; stroke-dasharray: none; stroke-linecap: butt; stroke-dashoffset: 0; stroke-linejoin: miter; stroke-miterlimit: 4; fill: rgb(214,163,174); fill-rule: nonzero; opacity: 1;" vector-effect="non-scaling-stroke"  cx="0" cy="0" r="35" />
</g>
<g transform="matrix(0.11 0 0 0.16 644.84 737.54)" id="3f7c91fd-8294-413c-9b81-1f3a5b7a9bfd"  >
<circle style="stroke: rgb(0,0,0); stroke-width: 0; stroke-dasharray: none; stroke-linecap: butt; stroke-dashoffset: 0; stroke-linejoin: miter; stroke-miterlimit: 4; fill: rgb(214,163,174); fill-rule: nonzero; opacity: 1;" vector-effect="non-scaling-stroke"  cx="0" cy="0" r="35" />
</g>
<g transform="matrix(0.16 0 0 0.11 631.92 749.22)" id="a2cafbcc-6a47-405c-b8c3-f495dec0ab3d"  >
<circle style="stroke: rgb(0,0,0); stroke-width: 0; stroke-dasharray: none; stroke-linecap: butt; stroke-dashoffset: 0; stroke-linejoin: miter; stroke-miterlimit: 4; fill: rgb(202,127,143); fill-rule: nonzero; opacity: 1;" vector-effect="non-scaling-stroke"  cx="0" cy="0" r="35" />
</g>
<g transform="matrix(0.04 0 0 0.04 634.38 748.98)" id="3b4de6da-a644-494f-b846-c0a853edec1c"  >
<circle style="stroke: rgb(0,0,0); stroke-width: 0; stroke-dasharray: none; stroke-linecap: butt; stroke-dashoffset: 0; stroke-linejoin: miter; stroke-miterlimit: 4; fill: rgb(0,0,0); fill-rule: nonzero; opacity: 1;" vector-effect="non-scaling-stroke"  cx="0" cy="0" r="35" />
</g>
<g transform="matrix(0.04 0 0 0.04 630.4 748.87)" id="3b4de6da-a644-494f-b846-c0a853edec1c"  >
<circle style="stroke: rgb(0,0,0); stroke-width: 0; stroke-dasharray: none; stroke-linecap: butt; stroke-dashoffset: 0; stroke-linejoin: miter; stroke-miterlimit: 4; fill: rgb(0,0,0); fill-rule: nonzero; opacity: 1;" vector-effect="non-scaling-stroke"  cx="0" cy="0" r="35" />
</g>
<g transform="matrix(0.07 0 0 0.07 628.61 740.17)" id="50a89e64-a152-4fc9-86a7-83c5d5a36e25"  >
<circle style="stroke: rgb(0,0,0); stroke-width: 0; stroke-dasharray: none; stroke-linecap: butt; stroke-dashoffset: 0; stroke-linejoin: miter; stroke-miterlimit: 4; fill: rgb(255,255,255); fill-rule: nonzero; opacity: 1;" vector-effect="non-scaling-stroke"  cx="0" cy="0" r="35" />
</g>
<g transform="matrix(0.07 0 0 0.07 637.28 740.32)" id="50a89e64-a152-4fc9-86a7-83c5d5a36e25"  >
<circle style="stroke: rgb(0,0,0); stroke-width: 0; stroke-dasharray: none; stroke-linecap: butt; stroke-dashoffset: 0; stroke-linejoin: miter; stroke-miterlimit: 4; fill: rgb(255,255,255); fill-rule: nonzero; opacity: 1;" vector-effect="non-scaling-stroke"  cx="0" cy="0" r="35" />
</g>
<g transform="matrix(0.04 0 0 0.04 629.77 740.75)" id="3b4de6da-a644-494f-b846-c0a853edec1c"  >
<circle style="stroke: rgb(0,0,0); stroke-width: 0; stroke-dasharray: none; stroke-linecap: butt; stroke-dashoffset: 0; stroke-linejoin: miter; stroke-miterlimit: 4; fill: rgb(0,0,0); fill-rule: nonzero; opacity: 1;" vector-effect="non-scaling-stroke"  cx="0" cy="0" r="35" />
</g>
<g transform="matrix(0.04 0 0 0.04 636.89 739.35)" id="3b4de6da-a644-494f-b846-c0a853edec1c"  >
<circle style="stroke: rgb(0,0,0); stroke-width: 0; stroke-dasharray: none; stroke-linecap: butt; stroke-dashoffset: 0; stroke-linejoin: miter; stroke-miterlimit: 4; fill: rgb(0,0,0); fill-rule: nonzero; opacity: 1;" vector-effect="non-scaling-stroke"  cx="0" cy="0" r="35" />
</g>
<g transform="matrix(0.09 0.1 0.1 -0.08 579.32 759.03)"  >
<path style="stroke: rgb(214,163,174); stroke-width: 4; stroke-dasharray: none; stroke-linecap: butt; stroke-dashoffset: 0; stroke-linejoin: miter; stroke-miterlimit: 4; fill: rgb(214,163,174); fill-rule: nonzero; opacity: 1;" vector-effect="non-scaling-stroke"  transform=" translate(-50, -50)" d="M 44.565 18.929 C 59.677 18.929 72.25 29.652 75.077 43.884 L 86.481 43.884 L 78.48899999999999 53.388 L 70.49699999999999 62.891999999999996 L 62.50099999999998 53.388 L 54.508999999999986 43.884 L 65.52399999999999 43.884 C 62.890999999999984 34.818 54.508999999999986 28.189 44.56599999999999 28.189 C 32.52999999999999 28.189 22.780999999999988 37.936 22.780999999999988 49.975 C 22.780999999999988 62.062 32.52999999999999 71.811 44.56599999999999 71.811 C 49.58699999999999 71.811 54.216999999999985 70.105 57.87399999999999 67.278 L 61.67599999999999 75.952 C 56.79999999999999 79.17 50.90299999999999 81.07 44.56599999999999 81.07 C 27.41199999999999 81.07 13.518999999999988 67.17999999999999 13.518999999999988 49.974999999999994 C 13.518 32.82 27.411 18.929 44.565 18.929 z" stroke-linecap="round" />
</g>
<g transform="matrix(0.09 0.1 0.1 -0.08 579.21 754.79)"  >
<path style="stroke: rgb(214,163,174); stroke-width: 4; stroke-dasharray: none; stroke-linecap: butt; stroke-dashoffset: 0; stroke-linejoin: miter; stroke-miterlimit: 4; fill: rgb(214,163,174); fill-rule: nonzero; opacity: 1;" vector-effect="non-scaling-stroke"  transform=" translate(-50, -50)" d="M 44.565 18.929 C 59.677 18.929 72.25 29.652 75.077 43.884 L 86.481 43.884 L 78.48899999999999 53.388 L 70.49699999999999 62.891999999999996 L 62.50099999999998 53.388 L 54.508999999999986 43.884 L 65.52399999999999 43.884 C 62.890999999999984 34.818 54.508999999999986 28.189 44.56599999999999 28.189 C 32.52999999999999 28.189 22.780999999999988 37.936 22.780999999999988 49.975 C 22.780999999999988 62.062 32.52999999999999 71.811 44.56599999999999 71.811 C 49.58699999999999 71.811 54.216999999999985 70.105 57.87399999999999 67.278 L 61.67599999999999 75.952 C 56.79999999999999 79.17 50.90299999999999 81.07 44.56599999999999 81.07 C 27.41199999999999 81.07 13.518999999999988 67.17999999999999 13.518999999999988 49.974999999999994 C 13.518 32.82 27.411 18.929 44.565 18.929 z" stroke-linecap="round" />
</g>
<g transform="matrix(-0.05 0.12 0.12 0.05 578.07 749)"  >
<path style="stroke: rgb(214,163,174); stroke-width: 4; stroke-dasharray: none; stroke-linecap: butt; stroke-dashoffset: 0; stroke-linejoin: miter; stroke-miterlimit: 4; fill: rgb(214,163,174); fill-rule: nonzero; opacity: 1;" vector-effect="non-scaling-stroke"  transform=" translate(-50, -50)" d="M 44.565 18.929 C 59.677 18.929 72.25 29.652 75.077 43.884 L 86.481 43.884 L 78.48899999999999 53.388 L 70.49699999999999 62.891999999999996 L 62.50099999999998 53.388 L 54.508999999999986 43.884 L 65.52399999999999 43.884 C 62.890999999999984 34.818 54.508999999999986 28.189 44.56599999999999 28.189 C 32.52999999999999 28.189 22.780999999999988 37.936 22.780999999999988 49.975 C 22.780999999999988 62.062 32.52999999999999 71.811 44.56599999999999 71.811 C 49.58699999999999 71.811 54.216999999999985 70.105 57.87399999999999 67.278 L 61.67599999999999 75.952 C 56.79999999999999 79.17 50.90299999999999 81.07 44.56599999999999 81.07 C 27.41199999999999 81.07 13.518999999999988 67.17999999999999 13.518999999999988 49.974999999999994 C 13.518 32.82 27.411 18.929 44.565 18.929 z" stroke-linecap="round" />
</g>
<g transform="matrix(0.09 0 0 0.21 627.24 776.65)" id="b70d404c-2058-4664-9f45-c9ce794600dd"  >
<rect style="stroke: rgb(0,0,0); stroke-width: 0; stroke-dasharray: none; stroke-linecap: butt; stroke-dashoffset: 0; stroke-linejoin: miter; stroke-miterlimit: 4; fill: rgb(214,163,174); fill-rule: nonzero; opacity: 1;" vector-effect="non-scaling-stroke"  x="-33.085" y="-33.085" rx="0" ry="0" width="66.17" height="66.17" />
</g>
<g transform="matrix(0.09 0 0 0.21 618.09 777.31)" id="b70d404c-2058-4664-9f45-c9ce794600dd"  >
<rect style="stroke: rgb(0,0,0); stroke-width: 0; stroke-dasharray: none; stroke-linecap: butt; stroke-dashoffset: 0; stroke-linejoin: miter; stroke-miterlimit: 4; fill: rgb(214,163,174); fill-rule: nonzero; opacity: 1;" vector-effect="non-scaling-stroke"  x="-33.085" y="-33.085" rx="0" ry="0" width="66.17" height="66.17" />
</g>
<g transform="matrix(0.09 0 0 0.21 596.81 777.72)" id="b70d404c-2058-4664-9f45-c9ce794600dd"  >
<rect style="stroke: rgb(0,0,0); stroke-width: 0; stroke-dasharray: none; stroke-linecap: butt; stroke-dashoffset: 0; stroke-linejoin: miter; stroke-miterlimit: 4; fill: rgb(214,163,174); fill-rule: nonzero; opacity: 1;" vector-effect="non-scaling-stroke"  x="-33.085" y="-33.085" rx="0" ry="0" width="66.17" height="66.17" />
</g>
<g transform="matrix(0.09 0 0 0.21 584.82 777.09)" id="b70d404c-2058-4664-9f45-c9ce794600dd"  >
<rect style="stroke: rgb(0,0,0); stroke-width: 0; stroke-dasharray: none; stroke-linecap: butt; stroke-dashoffset: 0; stroke-linejoin: miter; stroke-miterlimit: 4; fill: rgb(214,163,174); fill-rule: nonzero; opacity: 1;" vector-effect="non-scaling-stroke"  x="-33.085" y="-33.085" rx="0" ry="0" width="66.17" height="66.17" />
</g>
<g transform="matrix(1 0 0 1.84 213.12 826.18)" id="bc394c5d-27db-4c4a-ba9c-d9334da936bc"  >
<rect style="stroke: rgb(0,0,0); stroke-width: 0; stroke-dasharray: none; stroke-linecap: butt; stroke-dashoffset: 0; stroke-linejoin: miter; stroke-miterlimit: 4; fill: rgb(93,73,40); fill-rule: nonzero; opacity: 1;" vector-effect="non-scaling-stroke"  x="-33.0835" y="-33.0835" rx="0" ry="0" width="66.167" height="66.167" />
</g>
<g transform="matrix(0.25 0 0 0.25 230.17 827.71)" id="3d12956a-1e2a-46ca-a00b-e7c0764c8859"  >
<circle style="stroke: rgb(0,0,0); stroke-width: 0; stroke-dasharray: none; stroke-linecap: butt; stroke-dashoffset: 0; stroke-linejoin: miter; stroke-miterlimit: 4; fill: rgb(0,0,0); fill-rule: nonzero; opacity: 1;" vector-effect="non-scaling-stroke"  cx="0" cy="0" r="35" />
</g>
</svg>